<svg width="142" height="142" viewBox="0 0 142 142" fill="none" xmlns="http://www.w3.org/2000/svg">
<path d="M71 8.875C58.7129 8.875 46.7016 12.5186 36.4852 19.345C26.2688 26.1713 18.3061 35.8739 13.604 47.2258C8.90191 58.5777 7.67163 71.0689 10.0687 83.12C12.4658 95.1711 18.3827 106.241 27.071 114.929C35.7594 123.617 46.829 129.534 58.88 131.931C70.9311 134.328 83.4224 133.098 94.7742 128.396C106.126 123.694 115.829 115.731 122.655 105.515C129.481 95.2984 133.125 83.2872 133.125 71C133.125 54.5234 126.58 38.7217 114.929 27.071C103.278 15.4203 87.4766 8.875 71 8.875V8.875ZM71 31.0625C74.9495 31.0625 78.8102 32.2336 82.0941 34.4278C85.3779 36.622 87.9374 39.7407 89.4487 43.3895C90.9601 47.0384 91.3556 51.0534 90.5851 54.927C89.8146 58.8005 87.9127 62.3586 85.1201 65.1513C82.3274 67.944 78.7693 69.8458 74.8957 70.6163C71.0222 71.3868 67.0071 70.9914 63.3583 69.48C59.7095 67.9686 56.5908 65.4091 54.3966 62.1253C52.2024 58.8414 51.0313 54.9807 51.0313 51.0312C51.0254 48.4073 51.5379 45.808 52.5394 43.3826C53.5408 40.9573 55.0115 38.7536 56.8669 36.8982C58.7224 35.0427 60.926 33.5721 63.3514 32.5706C65.7768 31.5692 68.3761 31.0566 71 31.0625V31.0625ZM106.5 110.583C96.7687 119.379 84.1179 124.249 71 124.249C57.8821 124.249 45.2314 119.379 35.5 110.583V108.009C35.332 101.933 37.568 96.0361 41.7223 91.5993C45.8766 87.1625 51.6138 84.544 57.6875 84.3125H84.3125C90.3588 84.5552 96.0688 87.1587 100.217 91.5641C104.365 95.9695 106.621 101.826 106.5 107.876V110.583V110.583Z" fill="black"/>
</svg>
