<svg width="318" height="220" viewBox="0 0 318 220" fill="none" xmlns="http://www.w3.org/2000/svg">
<g clip-path="url(#clip0)">
<path opacity="0.1" d="M179.87 29.9509C159.487 29.9782 139.867 24.1878 121.101 17.7552C102.334 11.3227 83.7124 4.1195 63.708 1.06717C50.8426 -0.894845 36.2129 -0.714492 26.1562 6.40943C16.4758 13.2628 13.6726 24.6059 12.3201 35.0855C11.3029 42.9691 10.8339 51.2434 14.6434 58.4548C17.2884 63.4609 21.815 67.5872 25.0055 72.3583C36.142 88.9562 29.4448 110.159 18.6219 127.142C13.5471 135.11 7.60256 142.748 3.76585 151.172C-0.0708625 159.597 -1.64427 169.15 2.2688 177.466C6.14641 185.707 14.9051 191.689 24.3047 195.774C43.3928 204.087 65.6168 205.868 87.2437 206.554C135.117 208.076 183.082 204.972 230.92 201.868C248.623 200.72 266.405 199.564 283.742 196.239C293.368 194.394 303.28 191.656 310.106 185.655C318.769 178.037 320.541 165.598 314.237 156.657C303.665 141.66 275.788 138.832 268.207 122.606C264.027 113.673 267.632 103.428 272.941 94.8177C284.329 76.3425 303.929 59.7938 304.259 39.1298C304.486 24.9393 294.293 11.0959 279.068 4.92836C263.111 -1.53154 241.353 0.129886 230.173 12.1698C218.676 24.5731 197.868 29.9318 179.87 29.9509Z" fill="#6C63FF"/>
<path d="M270.651 176.352C270.651 176.352 267.299 174.136 263.978 175.712C263.978 175.712 265 177.685 269.205 177.5L270.651 176.352Z" fill="#6C63FF"/>
<path d="M271.076 176.469C271.076 176.469 272.096 180.361 269.538 183.009C269.538 183.009 268 181.405 269.538 177.475L271.076 176.469Z" fill="#6C63FF"/>
<path d="M275.243 172.734C275.243 172.734 274.994 169.425 267.536 170.523C267.536 170.523 267.501 172.657 270.119 173.669C272.737 174.68 273.936 173.827 275.243 172.734Z" fill="#6C63FF"/>
<path d="M275.712 172.712C275.712 172.712 278.864 173.726 276.052 180.735C276.052 180.735 273.972 180.271 273.598 177.481C273.225 174.691 274.332 173.729 275.712 172.712Z" fill="#6C63FF"/>
<path d="M279.922 168.017C279.922 168.017 280.35 162.571 272.728 163.129C272.728 163.129 272.183 168.048 278.578 169.326L279.922 168.017Z" fill="#6C63FF"/>
<path d="M284.958 161.869C284.958 161.869 283.914 155.696 276.295 157.535C276.295 157.535 276.268 162.872 283.715 163.339L284.958 161.869Z" fill="#6C63FF"/>
<path d="M288.64 155.513C288.64 155.513 286.889 149.501 279.341 151.299C279.341 151.299 281.138 156.707 288.138 156.622L288.64 155.513Z" fill="#6C63FF"/>
<path d="M292.136 149.305C292.136 149.305 290.426 143.066 283.137 144.932C283.137 144.932 285.569 150.859 291.653 150.359L292.136 149.305Z" fill="#6C63FF"/>
<path d="M294.388 143.408C294.388 143.408 293.074 135.778 286.278 137.467C286.278 137.467 288.252 144.408 293.889 144.52L294.388 143.408Z" fill="#6C63FF"/>
<path d="M296.501 136.284C296.501 136.284 294.922 128.594 288.048 130.818C288.048 130.818 290.742 138.087 296.013 137.336L296.501 136.284Z" fill="#6C63FF"/>
<path d="M297.799 129.654C297.799 129.654 295.293 121.962 289.979 122.17C289.979 122.17 292.539 130.294 297.355 131.187L297.799 129.654Z" fill="#6C63FF"/>
<path d="M298.639 123.184C298.639 123.184 295.912 113.925 291.587 114.639C291.587 114.639 293.474 121.716 298.486 124.626L298.639 123.184Z" fill="#6C63FF"/>
<path d="M299.114 115.464C299.114 115.464 296.556 107.75 292.296 107.441C292.296 107.441 294.036 115.032 299.029 117.47L299.114 115.464Z" fill="#6C63FF"/>
<path d="M299.629 108.261C299.629 108.261 296.441 100.538 293.63 100.363C293.63 100.363 295.015 107.968 299.356 109.529L299.629 108.261Z" fill="#6C63FF"/>
<path d="M299.981 101.56C299.981 101.56 298.02 93.1739 295.203 92.4771C295.203 92.4771 295.588 99.3387 299.697 102.189L299.981 101.56Z" fill="#6C63FF"/>
<path d="M301.044 92.7832C301.044 92.7832 298.983 86.0965 296.7 85.0772C296.7 85.0772 297.15 92.9608 300.518 94.4173L301.044 92.7832Z" fill="#6C63FF"/>
<path d="M301.925 87.0447L302.34 75.2562C302.34 75.2562 298.072 84.1426 301.617 89.1133L301.925 87.0447Z" fill="#6C63FF"/>
<path d="M305.219 75.319C305.219 75.319 308.292 66.7113 309.037 66.2303C309.037 66.2303 303.01 71.8158 303.599 78.9998L305.219 75.319Z" fill="#6C63FF"/>
<path d="M280.129 167.976C280.129 167.976 285.534 167.269 285.373 174.923C285.373 174.923 280.489 175.721 278.894 169.389L280.129 167.976Z" fill="#6C63FF"/>
<path d="M285.215 161.661C285.215 161.661 291.459 161.642 290.941 169.477C290.941 169.477 285.697 170.417 283.969 163.142L285.215 161.661Z" fill="#6C63FF"/>
<path d="M288.7 156.019C288.7 156.019 294.369 153.354 297.996 160.232C297.996 160.232 292.76 162.451 288.198 157.131L288.7 156.019Z" fill="#6C63FF"/>
<path d="M292.261 149.362C292.261 149.362 298.067 146.528 301.475 153.245C301.475 153.245 295.427 155.333 291.781 150.425L292.261 149.362Z" fill="#6C63FF"/>
<path d="M294.314 143.574C294.314 143.574 299.902 138.227 304.36 143.634C304.36 143.634 298.653 148.037 294.058 144.766L294.314 143.574Z" fill="#6C63FF"/>
<path d="M296.185 136.101C296.185 136.101 301.805 130.635 306.228 136.352C306.228 136.352 299.921 140.842 295.983 137.248L296.185 136.101Z" fill="#6C63FF"/>
<path d="M297.235 129.436C297.235 129.436 301.565 122.604 306.664 124.129C306.664 124.129 302.17 131.362 297.284 131.04L297.235 129.436Z" fill="#6C63FF"/>
<path d="M298.511 123.14C298.511 123.14 302.874 114.538 307.003 116.035C307.003 116.035 303.856 122.648 298.399 124.591L298.511 123.14Z" fill="#6C63FF"/>
<path d="M298.814 115.016C298.814 115.016 303.299 108.244 307.501 109.072C307.501 109.072 303.834 115.939 298.377 116.975L298.814 115.016Z" fill="#6C63FF"/>
<path d="M299.163 108.11C299.163 108.11 302.639 100.511 305.465 100.459C305.465 100.459 303.796 108.004 299.397 109.4L299.163 108.11Z" fill="#6C63FF"/>
<path d="M299.844 101.396C299.844 101.396 303.708 93.7013 306.613 93.6849C306.613 93.6849 304.636 100.265 299.973 102.071L299.844 101.396Z" fill="#6C63FF"/>
<path d="M300.425 93.2641C300.425 93.2641 303.316 86.8971 305.71 86.1757C305.71 86.1757 304.265 93.9363 300.744 94.9529L300.425 93.2641Z" fill="#6C63FF"/>
<path d="M302.269 86.8124L308.729 76.9504C308.729 76.9504 307.073 86.6785 301.325 88.7006L302.269 86.8124Z" fill="#6C63FF"/>
<path d="M306.703 76.1142C306.703 76.1142 314.21 70.9223 314.482 70.0833C314.482 70.0833 310.665 77.3548 303.575 78.6392L306.703 76.1142Z" fill="#6C63FF"/>
<path d="M307.152 73.7778C307.152 73.7778 315.772 65.4734 317.973 65.4816C317.973 65.4816 310.864 65.8068 306.945 73.3352L307.152 73.7778Z" fill="#6C63FF"/>
<path d="M300.51 94.4965L300.823 94.5375C302.443 81.8336 304.805 74.3162 307.471 73.3953L307.368 73.0947C304.54 74.0784 302.162 81.4811 300.51 94.4965Z" fill="#444053"/>
<path d="M298.127 124.878L298.601 124.916C298.702 123.73 298.778 122.517 298.83 121.306C299.283 110.791 299.984 101.134 300.905 93.8953L300.632 93.5538C299.708 100.809 298.808 110.756 298.356 121.287C298.304 122.489 298.227 123.697 298.127 124.878Z" fill="#444053"/>
<path d="M261.805 182.413C261.886 182.377 270.239 178.639 278.908 169.725C283.986 164.505 288.206 158.509 291.41 151.963C295.419 143.785 297.862 133.734 298.68 123.97L298.187 124.203C296.346 146.118 286.39 161.093 278.474 169.25C269.89 178.084 261.63 181.784 261.548 181.82L261.805 182.413Z" fill="#444053"/>
<path d="M283.431 23.2901H21.4114C20.7923 23.2901 20.1986 23.5365 19.7609 23.9752C19.3231 24.4138 19.0772 25.0088 19.0772 25.6292V32.4443H285.766V25.6292C285.766 25.0088 285.52 24.4138 285.082 23.9752C284.644 23.5365 284.051 23.2901 283.431 23.2901V23.2901Z" fill="#3F3D56"/>
<path d="M19.0772 32.4443V185.81C19.0772 187.06 19.5731 188.26 20.4557 189.145C21.3384 190.029 22.5355 190.526 23.7838 190.526H281.059C282.307 190.526 283.504 190.029 284.387 189.145C285.27 188.26 285.766 187.06 285.766 185.81V32.4443H19.0772Z" fill="white"/>
<path opacity="0.8" d="M23.3011 28.8919C23.9035 28.8919 24.3919 28.4026 24.3919 27.7989C24.3919 27.1952 23.9035 26.7058 23.3011 26.7058C22.6987 26.7058 22.2104 27.1952 22.2104 27.7989C22.2104 28.4026 22.6987 28.8919 23.3011 28.8919Z" fill="#FA5959"/>
<path opacity="0.8" d="M26.3007 28.8919C26.9031 28.8919 27.3915 28.4026 27.3915 27.7989C27.3915 27.1952 26.9031 26.7058 26.3007 26.7058C25.6983 26.7058 25.21 27.1952 25.21 27.7989C25.21 28.4026 25.6983 28.8919 26.3007 28.8919Z" fill="#FED253"/>
<path opacity="0.8" d="M29.3003 28.8919C29.9027 28.8919 30.391 28.4026 30.391 27.7989C30.391 27.1952 29.9027 26.7058 29.3003 26.7058C28.6979 26.7058 28.2095 27.1952 28.2095 27.7989C28.2095 28.4026 28.6979 28.8919 29.3003 28.8919Z" fill="#8CCF4D"/>
<path opacity="0.05" d="M258.2 58.0161H43.8672V152.461H258.2V58.0161Z" fill="black"/>
<path d="M256.563 58.7321H45.5034V151.094H256.563V58.7321Z" fill="#3F3D56"/>
<path d="M103.04 82.5031C98.8876 82.5031 94.8281 83.7371 91.3752 86.0492C87.9222 88.3612 85.231 91.6473 83.6418 95.4921C82.0526 99.3369 81.6368 103.568 82.4469 107.649C83.2571 111.731 85.2569 115.48 88.1934 118.423C91.1298 121.365 94.8711 123.369 98.9441 124.181C103.017 124.993 107.239 124.576 111.076 122.984C114.912 121.391 118.192 118.694 120.499 115.234C122.806 111.774 124.037 107.706 124.037 103.544C124.037 100.781 123.494 98.0449 122.439 95.4921C121.384 92.9393 119.837 90.6197 117.888 88.6659C115.938 86.712 113.623 85.1622 111.076 84.1047C108.528 83.0473 105.798 82.5031 103.04 82.5031V82.5031ZM106.806 104.05V114.013H99.3837V104.05C98.3565 103.271 97.5995 102.188 97.2195 100.954C96.8395 99.7208 96.8557 98.3988 97.2658 97.175C97.6759 95.9512 98.4591 94.8873 99.5051 94.1337C100.551 93.38 101.807 92.9745 103.095 92.9745C104.383 92.9745 105.639 93.38 106.685 94.1337C107.731 94.8873 108.514 95.9512 108.924 97.175C109.334 98.3988 109.35 99.7208 108.97 100.954C108.59 102.188 107.833 103.271 106.806 104.05V104.05Z" fill="#6C63FF"/>
<path opacity="0.05" d="M103.04 82.5031C98.8876 82.5031 94.8281 83.7371 91.3752 86.0492C87.9222 88.3612 85.231 91.6473 83.6418 95.4921C82.0526 99.3369 81.6368 103.568 82.4469 107.649C83.2571 111.731 85.2569 115.48 88.1934 118.423C91.1298 121.365 94.8711 123.369 98.9441 124.181C103.017 124.993 107.239 124.576 111.076 122.984C114.912 121.391 118.192 118.694 120.499 115.234C122.806 111.774 124.037 107.706 124.037 103.544C124.037 100.781 123.494 98.0449 122.439 95.4921C121.384 92.9393 119.837 90.6197 117.888 88.6659C115.938 86.712 113.623 85.1622 111.076 84.1047C108.528 83.0473 105.798 82.5031 103.04 82.5031V82.5031ZM106.806 104.05V114.013H99.3837V104.05C98.3565 103.271 97.5995 102.188 97.2195 100.954C96.8395 99.7208 96.8557 98.3988 97.2658 97.175C97.6759 95.9512 98.4591 94.8873 99.5051 94.1337C100.551 93.38 101.807 92.9745 103.095 92.9745C104.383 92.9745 105.639 93.38 106.685 94.1337C107.731 94.8873 108.514 95.9512 108.924 97.175C109.334 98.3988 109.35 99.7208 108.97 100.954C108.59 102.188 107.833 103.271 106.806 104.05V104.05Z" fill="black"/>
<path d="M103.04 76.4913C97.7011 76.4913 92.4817 78.078 88.0422 81.0506C83.6027 84.0232 80.1426 88.2483 78.0993 93.1915C76.056 98.1348 75.5214 103.574 76.5631 108.822C77.6047 114.07 80.1759 118.89 83.9513 122.673C87.7268 126.457 92.537 129.033 97.7737 130.077C103.01 131.121 108.438 130.585 113.371 128.538C118.304 126.49 122.52 123.023 125.487 118.574C128.453 114.125 130.036 108.895 130.036 103.544C130.036 96.3693 127.192 89.4883 122.13 84.4149C117.067 79.3415 110.2 76.4913 103.04 76.4913V76.4913ZM107.881 104.195V117.002H98.3366V104.195C97.0154 103.193 96.0416 101.8 95.5528 100.214C95.0639 98.6275 95.0846 96.9273 95.6119 95.3533C96.1392 93.7793 97.1465 92.4111 98.4917 91.4417C99.8368 90.4724 101.452 89.9509 103.109 89.9509C104.765 89.9509 106.38 90.4724 107.726 91.4417C109.071 92.4111 110.078 93.7793 110.605 95.3533C111.133 96.9273 111.153 98.6275 110.664 100.214C110.176 101.8 109.202 103.193 107.881 104.195V104.195Z" fill="#6C63FF"/>
<path d="M228.477 99.9945H141.217V109.285H228.477V99.9945Z" fill="white"/>
<path d="M228.477 116.937H209.661V126.228H228.477V116.937Z" fill="#6C63FF"/>
<path d="M149.806 104.501H148.227L149.632 103.096C149.657 103.07 149.671 103.035 149.671 102.999C149.671 102.963 149.657 102.928 149.632 102.902C149.619 102.889 149.604 102.879 149.587 102.872C149.571 102.865 149.553 102.862 149.535 102.862C149.517 102.862 149.499 102.865 149.483 102.872C149.466 102.879 149.451 102.889 149.438 102.902L148.034 104.309V102.724C148.034 102.688 148.02 102.653 147.994 102.628C147.968 102.602 147.934 102.588 147.898 102.588C147.862 102.588 147.827 102.603 147.802 102.629C147.776 102.654 147.762 102.688 147.761 102.724V104.309L146.36 102.894C146.347 102.881 146.332 102.871 146.315 102.864C146.299 102.857 146.281 102.853 146.263 102.853C146.245 102.853 146.227 102.857 146.21 102.864C146.194 102.871 146.179 102.881 146.166 102.894C146.141 102.92 146.127 102.955 146.127 102.991C146.127 103.027 146.141 103.062 146.166 103.088L147.57 104.492H145.989C145.953 104.493 145.918 104.508 145.893 104.533C145.868 104.559 145.853 104.593 145.852 104.629C145.852 104.665 145.867 104.7 145.892 104.726C145.918 104.751 145.953 104.766 145.989 104.766H147.57L146.166 106.173C146.141 106.199 146.127 106.234 146.127 106.27C146.127 106.306 146.141 106.341 146.166 106.367C146.192 106.392 146.227 106.405 146.263 106.405C146.299 106.405 146.333 106.392 146.36 106.367L147.761 104.96V106.542C147.761 106.578 147.776 106.613 147.801 106.638C147.827 106.664 147.861 106.679 147.898 106.679C147.934 106.679 147.968 106.664 147.994 106.638C148.02 106.613 148.034 106.578 148.034 106.542V104.96L149.438 106.367C149.464 106.392 149.499 106.405 149.535 106.405C149.571 106.405 149.606 106.392 149.632 106.367C149.657 106.341 149.671 106.306 149.671 106.27C149.671 106.234 149.657 106.199 149.632 106.173L148.227 104.766H149.806C149.843 104.766 149.877 104.751 149.903 104.726C149.928 104.7 149.943 104.665 149.943 104.629C149.941 104.594 149.925 104.562 149.9 104.538C149.875 104.514 149.841 104.501 149.806 104.501Z" fill="#6C63FF"/>
<path d="M155.533 104.501H153.954L155.358 103.096C155.383 103.07 155.397 103.035 155.397 102.999C155.397 102.963 155.383 102.928 155.358 102.902C155.346 102.889 155.33 102.879 155.314 102.872C155.297 102.865 155.279 102.862 155.261 102.862C155.243 102.862 155.226 102.865 155.209 102.872C155.192 102.879 155.177 102.889 155.165 102.902L153.76 104.309V102.724C153.76 102.688 153.746 102.653 153.72 102.628C153.695 102.602 153.66 102.588 153.624 102.588C153.588 102.588 153.554 102.603 153.528 102.629C153.503 102.654 153.488 102.688 153.488 102.724V104.309L152.086 102.894C152.073 102.881 152.058 102.871 152.042 102.864C152.025 102.857 152.007 102.853 151.989 102.853C151.971 102.853 151.953 102.857 151.937 102.864C151.92 102.871 151.905 102.881 151.892 102.894C151.867 102.92 151.853 102.955 151.853 102.991C151.853 103.027 151.867 103.062 151.892 103.088L153.297 104.492H151.715C151.679 104.493 151.645 104.508 151.619 104.533C151.594 104.559 151.579 104.593 151.579 104.629C151.579 104.665 151.593 104.7 151.619 104.726C151.644 104.751 151.679 104.766 151.715 104.766H153.297L151.892 106.173C151.867 106.199 151.853 106.234 151.853 106.27C151.853 106.306 151.867 106.341 151.892 106.367C151.919 106.392 151.953 106.405 151.989 106.405C152.025 106.405 152.06 106.392 152.086 106.367L153.488 104.96V106.542C153.488 106.578 153.502 106.613 153.528 106.638C153.553 106.664 153.588 106.679 153.624 106.679C153.66 106.679 153.695 106.664 153.72 106.638C153.746 106.613 153.76 106.578 153.76 106.542V104.96L155.165 106.367C155.191 106.392 155.225 106.405 155.261 106.405C155.297 106.405 155.332 106.392 155.358 106.367C155.383 106.341 155.397 106.306 155.397 106.27C155.397 106.234 155.383 106.199 155.358 106.173L153.954 104.766H155.533C155.569 104.766 155.604 104.751 155.629 104.726C155.655 104.7 155.669 104.665 155.669 104.629C155.667 104.594 155.652 104.562 155.626 104.538C155.601 104.514 155.568 104.501 155.533 104.501Z" fill="#6C63FF"/>
<path d="M161.259 104.501H159.68L161.085 103.096C161.11 103.07 161.124 103.035 161.124 102.999C161.124 102.963 161.11 102.928 161.085 102.902C161.072 102.889 161.057 102.879 161.04 102.872C161.024 102.865 161.006 102.862 160.988 102.862C160.97 102.862 160.952 102.865 160.935 102.872C160.919 102.879 160.904 102.889 160.891 102.902L159.487 104.309V102.724C159.487 102.688 159.472 102.653 159.447 102.628C159.421 102.602 159.387 102.588 159.35 102.588C159.314 102.588 159.28 102.603 159.255 102.629C159.229 102.654 159.215 102.688 159.214 102.724V104.309L157.812 102.894C157.8 102.881 157.785 102.871 157.768 102.864C157.752 102.857 157.734 102.853 157.716 102.853C157.698 102.853 157.68 102.857 157.663 102.864C157.647 102.871 157.632 102.881 157.619 102.894C157.594 102.92 157.58 102.955 157.58 102.991C157.58 103.027 157.594 103.062 157.619 103.088L159.023 104.492H157.442C157.406 104.493 157.371 104.508 157.346 104.533C157.321 104.559 157.306 104.593 157.305 104.629C157.305 104.665 157.32 104.7 157.345 104.726C157.371 104.751 157.405 104.766 157.442 104.766H159.023L157.619 106.173C157.594 106.199 157.58 106.234 157.58 106.27C157.58 106.306 157.594 106.341 157.619 106.367C157.645 106.392 157.68 106.405 157.716 106.405C157.752 106.405 157.786 106.392 157.812 106.367L159.214 104.96V106.542C159.214 106.578 159.228 106.613 159.254 106.638C159.28 106.664 159.314 106.679 159.35 106.679C159.387 106.679 159.421 106.664 159.447 106.638C159.472 106.613 159.487 106.578 159.487 106.542V104.96L160.891 106.367C160.917 106.392 160.952 106.405 160.988 106.405C161.024 106.405 161.058 106.392 161.085 106.367C161.11 106.341 161.124 106.306 161.124 106.27C161.124 106.234 161.11 106.199 161.085 106.173L159.68 104.766H161.259C161.295 104.766 161.33 104.751 161.356 104.726C161.381 104.7 161.396 104.665 161.396 104.629C161.393 104.594 161.378 104.562 161.353 104.538C161.328 104.514 161.294 104.501 161.259 104.501Z" fill="#6C63FF"/>
<path d="M166.986 104.501H165.407L166.811 103.096C166.836 103.07 166.85 103.035 166.85 102.999C166.85 102.963 166.836 102.928 166.811 102.902C166.798 102.889 166.783 102.879 166.767 102.872C166.75 102.865 166.732 102.862 166.714 102.862C166.696 102.862 166.678 102.865 166.662 102.872C166.645 102.879 166.63 102.889 166.618 102.902L165.213 104.309V102.724C165.213 102.688 165.199 102.653 165.173 102.628C165.148 102.602 165.113 102.588 165.077 102.588C165.041 102.588 165.007 102.603 164.981 102.629C164.956 102.654 164.941 102.688 164.94 102.724V104.309L163.539 102.894C163.526 102.881 163.511 102.871 163.495 102.864C163.478 102.857 163.46 102.853 163.442 102.853C163.424 102.853 163.406 102.857 163.39 102.864C163.373 102.871 163.358 102.881 163.345 102.894C163.32 102.92 163.306 102.955 163.306 102.991C163.306 103.027 163.32 103.062 163.345 103.088L164.75 104.492H163.168C163.132 104.493 163.098 104.508 163.072 104.533C163.047 104.559 163.032 104.593 163.032 104.629C163.032 104.665 163.046 104.7 163.072 104.726C163.097 104.751 163.132 104.766 163.168 104.766H164.75L163.345 106.173C163.32 106.199 163.306 106.234 163.306 106.27C163.306 106.306 163.32 106.341 163.345 106.367C163.372 106.392 163.406 106.405 163.442 106.405C163.478 106.405 163.513 106.392 163.539 106.367L164.94 104.96V106.542C164.94 106.578 164.955 106.613 164.98 106.638C165.006 106.664 165.041 106.679 165.077 106.679C165.113 106.679 165.148 106.664 165.173 106.638C165.199 106.613 165.213 106.578 165.213 106.542V104.96L166.618 106.367C166.644 106.392 166.678 106.405 166.714 106.405C166.75 106.405 166.785 106.392 166.811 106.367C166.836 106.341 166.85 106.306 166.85 106.27C166.85 106.234 166.836 106.199 166.811 106.173L165.407 104.766H166.986C167.022 104.766 167.056 104.751 167.082 104.726C167.108 104.7 167.122 104.665 167.122 104.629C167.12 104.594 167.105 104.562 167.079 104.538C167.054 104.514 167.02 104.501 166.986 104.501Z" fill="#6C63FF"/>
<path d="M172.712 104.501H171.133L172.538 103.096C172.563 103.07 172.577 103.035 172.577 102.999C172.577 102.963 172.563 102.928 172.538 102.902C172.525 102.889 172.51 102.879 172.493 102.872C172.477 102.865 172.459 102.862 172.441 102.862C172.423 102.862 172.405 102.865 172.388 102.872C172.372 102.879 172.357 102.889 172.344 102.902L170.94 104.309V102.724C170.94 102.688 170.925 102.653 170.9 102.628C170.874 102.602 170.839 102.588 170.803 102.588C170.767 102.588 170.733 102.603 170.708 102.629C170.682 102.654 170.668 102.688 170.667 102.724V104.309L169.265 102.894C169.253 102.881 169.238 102.871 169.221 102.864C169.204 102.857 169.186 102.853 169.168 102.853C169.15 102.853 169.133 102.857 169.116 102.864C169.099 102.871 169.084 102.881 169.072 102.894C169.047 102.92 169.032 102.955 169.032 102.991C169.032 103.027 169.047 103.062 169.072 103.088L170.476 104.492H168.894C168.859 104.493 168.824 104.508 168.799 104.533C168.773 104.559 168.759 104.593 168.758 104.629C168.758 104.665 168.772 104.7 168.798 104.726C168.824 104.751 168.858 104.766 168.894 104.766H170.476L169.072 106.173C169.047 106.199 169.032 106.234 169.032 106.27C169.032 106.306 169.047 106.341 169.072 106.367C169.098 106.392 169.133 106.405 169.168 106.405C169.204 106.405 169.239 106.392 169.265 106.367L170.667 104.96V106.542C170.667 106.578 170.681 106.613 170.707 106.638C170.732 106.664 170.767 106.679 170.803 106.679C170.839 106.679 170.874 106.664 170.9 106.638C170.925 106.613 170.94 106.578 170.94 106.542V104.96L172.344 106.367C172.37 106.392 172.405 106.405 172.441 106.405C172.477 106.405 172.511 106.392 172.538 106.367C172.563 106.341 172.577 106.306 172.577 106.27C172.577 106.234 172.563 106.199 172.538 106.173L171.133 104.766H172.712C172.748 104.766 172.783 104.751 172.809 104.726C172.834 104.7 172.848 104.665 172.848 104.629C172.846 104.594 172.831 104.562 172.806 104.538C172.78 104.514 172.747 104.501 172.712 104.501Z" fill="#6C63FF"/>
<path d="M178.439 104.501H176.86L178.264 103.096C178.289 103.07 178.303 103.035 178.303 102.999C178.303 102.963 178.289 102.928 178.264 102.902C178.251 102.889 178.236 102.879 178.22 102.872C178.203 102.865 178.185 102.862 178.167 102.862C178.149 102.862 178.131 102.865 178.115 102.872C178.098 102.879 178.083 102.889 178.07 102.902L176.666 104.309V102.724C176.666 102.688 176.652 102.653 176.626 102.628C176.601 102.602 176.566 102.588 176.53 102.588C176.494 102.588 176.459 102.603 176.434 102.629C176.409 102.654 176.394 102.688 176.393 102.724V104.309L174.992 102.894C174.979 102.881 174.964 102.871 174.947 102.864C174.931 102.857 174.913 102.853 174.895 102.853C174.877 102.853 174.859 102.857 174.843 102.864C174.826 102.871 174.811 102.881 174.798 102.894C174.773 102.92 174.759 102.955 174.759 102.991C174.759 103.027 174.773 103.062 174.798 103.088L176.202 104.492H174.621C174.585 104.493 174.551 104.508 174.525 104.533C174.5 104.559 174.485 104.593 174.485 104.629C174.485 104.665 174.499 104.7 174.524 104.726C174.55 104.751 174.585 104.766 174.621 104.766H176.202L174.798 106.173C174.773 106.199 174.759 106.234 174.759 106.27C174.759 106.306 174.773 106.341 174.798 106.367C174.824 106.392 174.859 106.405 174.895 106.405C174.931 106.405 174.965 106.392 174.992 106.367L176.393 104.96V106.542C176.393 106.578 176.408 106.613 176.433 106.638C176.459 106.664 176.494 106.679 176.53 106.679C176.566 106.679 176.601 106.664 176.626 106.638C176.652 106.613 176.666 106.578 176.666 106.542V104.96L178.07 106.367C178.097 106.392 178.131 106.405 178.167 106.405C178.203 106.405 178.238 106.392 178.264 106.367C178.289 106.341 178.303 106.306 178.303 106.27C178.303 106.234 178.289 106.199 178.264 106.173L176.86 104.766H178.439C178.475 104.766 178.509 104.751 178.535 104.726C178.56 104.7 178.575 104.665 178.575 104.629C178.573 104.594 178.557 104.562 178.532 104.538C178.507 104.514 178.473 104.501 178.439 104.501Z" fill="#6C63FF"/>
<path d="M184.165 104.501H182.586L183.99 103.096C184.016 103.07 184.03 103.035 184.03 102.999C184.03 102.963 184.016 102.928 183.99 102.902C183.978 102.889 183.963 102.879 183.946 102.872C183.929 102.865 183.912 102.862 183.894 102.862C183.876 102.862 183.858 102.865 183.841 102.872C183.825 102.879 183.81 102.889 183.797 102.902L182.393 104.309V102.724C182.393 102.688 182.378 102.653 182.353 102.628C182.327 102.602 182.292 102.588 182.256 102.588C182.22 102.588 182.186 102.603 182.161 102.629C182.135 102.654 182.121 102.688 182.12 102.724V104.309L180.718 102.894C180.706 102.881 180.69 102.871 180.674 102.864C180.657 102.857 180.639 102.853 180.621 102.853C180.603 102.853 180.586 102.857 180.569 102.864C180.552 102.871 180.537 102.881 180.525 102.894C180.499 102.92 180.485 102.955 180.485 102.991C180.485 103.027 180.499 103.062 180.525 103.088L181.929 104.492H180.347C180.311 104.493 180.277 104.508 180.252 104.533C180.226 104.559 180.212 104.593 180.211 104.629C180.211 104.665 180.225 104.7 180.251 104.726C180.276 104.751 180.311 104.766 180.347 104.766H181.929L180.525 106.173C180.499 106.199 180.485 106.234 180.485 106.27C180.485 106.306 180.499 106.341 180.525 106.367C180.551 106.392 180.585 106.405 180.621 106.405C180.657 106.405 180.692 106.392 180.718 106.367L182.12 104.96V106.542C182.12 106.578 182.134 106.613 182.16 106.638C182.185 106.664 182.22 106.679 182.256 106.679C182.292 106.679 182.327 106.664 182.353 106.638C182.378 106.613 182.393 106.578 182.393 106.542V104.96L183.797 106.367C183.823 106.392 183.858 106.405 183.894 106.405C183.93 106.405 183.964 106.392 183.99 106.367C184.016 106.341 184.03 106.306 184.03 106.27C184.03 106.234 184.016 106.199 183.99 106.173L182.586 104.766H184.165C184.201 104.766 184.236 104.751 184.261 104.726C184.287 104.7 184.301 104.665 184.301 104.629C184.299 104.594 184.284 104.562 184.259 104.538C184.233 104.514 184.2 104.501 184.165 104.501Z" fill="#6C63FF"/>
<path d="M189.891 104.501H188.313L189.717 103.096C189.742 103.07 189.756 103.035 189.756 102.999C189.756 102.963 189.742 102.928 189.717 102.902C189.704 102.889 189.689 102.879 189.673 102.872C189.656 102.865 189.638 102.862 189.62 102.862C189.602 102.862 189.584 102.865 189.568 102.872C189.551 102.879 189.536 102.889 189.523 102.902L188.119 104.309V102.724C188.119 102.688 188.105 102.653 188.079 102.628C188.053 102.602 188.019 102.588 187.983 102.588C187.947 102.588 187.912 102.603 187.887 102.629C187.862 102.654 187.847 102.688 187.846 102.724V104.309L186.445 102.894C186.432 102.881 186.417 102.871 186.4 102.864C186.384 102.857 186.366 102.853 186.348 102.853C186.33 102.853 186.312 102.857 186.295 102.864C186.279 102.871 186.264 102.881 186.251 102.894C186.226 102.92 186.212 102.955 186.212 102.991C186.212 103.027 186.226 103.062 186.251 103.088L187.655 104.492H186.074C186.038 104.493 186.004 104.508 185.978 104.533C185.953 104.559 185.938 104.593 185.937 104.629C185.937 104.665 185.952 104.7 185.977 104.726C186.003 104.751 186.038 104.766 186.074 104.766H187.655L186.251 106.173C186.226 106.199 186.212 106.234 186.212 106.27C186.212 106.306 186.226 106.341 186.251 106.367C186.277 106.392 186.312 106.405 186.348 106.405C186.384 106.405 186.418 106.392 186.445 106.367L187.846 104.96V106.542C187.846 106.578 187.861 106.613 187.886 106.638C187.912 106.664 187.946 106.679 187.983 106.679C188.019 106.679 188.053 106.664 188.079 106.638C188.105 106.613 188.119 106.578 188.119 106.542V104.96L189.523 106.367C189.55 106.392 189.584 106.405 189.62 106.405C189.656 106.405 189.691 106.392 189.717 106.367C189.742 106.341 189.756 106.306 189.756 106.27C189.756 106.234 189.742 106.199 189.717 106.173L188.313 104.766H189.891C189.928 104.766 189.962 104.751 189.988 104.726C190.013 104.7 190.028 104.665 190.028 104.629C190.026 104.594 190.01 104.562 189.985 104.538C189.96 104.514 189.926 104.501 189.891 104.501Z" fill="#6C63FF"/>
<path d="M195.618 104.501H194.039L195.443 103.096C195.469 103.07 195.483 103.035 195.483 102.999C195.483 102.963 195.469 102.928 195.443 102.902C195.431 102.889 195.416 102.879 195.399 102.872C195.382 102.865 195.365 102.862 195.347 102.862C195.329 102.862 195.311 102.865 195.294 102.872C195.277 102.879 195.262 102.889 195.25 102.902L193.845 104.309V102.724C193.845 102.688 193.831 102.653 193.805 102.628C193.78 102.602 193.745 102.588 193.709 102.588C193.673 102.588 193.639 102.603 193.613 102.629C193.588 102.654 193.573 102.688 193.573 102.724V104.309L192.171 102.894C192.158 102.881 192.143 102.871 192.127 102.864C192.11 102.857 192.092 102.853 192.074 102.853C192.056 102.853 192.038 102.857 192.022 102.864C192.005 102.871 191.99 102.881 191.977 102.894C191.952 102.92 191.938 102.955 191.938 102.991C191.938 103.027 191.952 103.062 191.977 103.088L193.382 104.492H191.8C191.764 104.493 191.73 104.508 191.705 104.533C191.679 104.559 191.665 104.593 191.664 104.629C191.664 104.665 191.678 104.7 191.704 104.726C191.729 104.751 191.764 104.766 191.8 104.766H193.382L191.977 106.173C191.952 106.199 191.938 106.234 191.938 106.27C191.938 106.306 191.952 106.341 191.977 106.367C192.004 106.392 192.038 106.405 192.074 106.405C192.11 106.405 192.145 106.392 192.171 106.367L193.573 104.96V106.542C193.573 106.578 193.587 106.613 193.613 106.638C193.638 106.664 193.673 106.679 193.709 106.679C193.745 106.679 193.78 106.664 193.805 106.638C193.831 106.613 193.845 106.578 193.845 106.542V104.96L195.25 106.367C195.276 106.392 195.311 106.405 195.347 106.405C195.382 106.405 195.417 106.392 195.443 106.367C195.469 106.341 195.483 106.306 195.483 106.27C195.483 106.234 195.469 106.199 195.443 106.173L194.039 104.766H195.618C195.654 104.766 195.689 104.751 195.714 104.726C195.74 104.7 195.754 104.665 195.754 104.629C195.752 104.594 195.737 104.562 195.712 104.538C195.686 104.514 195.653 104.501 195.618 104.501Z" fill="#6C63FF"/>
<path d="M201.344 104.501H199.765L201.17 103.096C201.195 103.07 201.209 103.035 201.209 102.999C201.209 102.963 201.195 102.928 201.17 102.902C201.157 102.889 201.142 102.879 201.125 102.872C201.109 102.865 201.091 102.862 201.073 102.862C201.055 102.862 201.037 102.865 201.021 102.872C201.004 102.879 200.989 102.889 200.976 102.902L199.572 104.309V102.724C199.572 102.688 199.557 102.653 199.532 102.628C199.506 102.602 199.472 102.588 199.435 102.588C199.4 102.588 199.365 102.603 199.34 102.629C199.314 102.654 199.3 102.688 199.299 102.724V104.309L197.898 102.894C197.885 102.881 197.87 102.871 197.853 102.864C197.837 102.857 197.819 102.853 197.801 102.853C197.783 102.853 197.765 102.857 197.748 102.864C197.732 102.871 197.717 102.881 197.704 102.894C197.679 102.92 197.665 102.955 197.665 102.991C197.665 103.027 197.679 103.062 197.704 103.088L199.108 104.492H197.527C197.491 104.493 197.456 104.508 197.431 104.533C197.406 104.559 197.391 104.593 197.39 104.629C197.39 104.665 197.405 104.7 197.43 104.726C197.456 104.751 197.491 104.766 197.527 104.766H199.108L197.704 106.173C197.679 106.199 197.665 106.234 197.665 106.27C197.665 106.306 197.679 106.341 197.704 106.367C197.73 106.392 197.765 106.405 197.801 106.405C197.837 106.405 197.871 106.392 197.898 106.367L199.299 104.96V106.542C199.299 106.578 199.313 106.613 199.339 106.638C199.365 106.664 199.399 106.679 199.435 106.679C199.472 106.679 199.506 106.664 199.532 106.638C199.557 106.613 199.572 106.578 199.572 106.542V104.96L200.976 106.367C201.002 106.392 201.037 106.405 201.073 106.405C201.109 106.405 201.143 106.392 201.17 106.367C201.195 106.341 201.209 106.306 201.209 106.27C201.209 106.234 201.195 106.199 201.17 106.173L199.765 104.766H201.344C201.38 104.766 201.415 104.751 201.441 104.726C201.466 104.7 201.481 104.665 201.481 104.629C201.479 104.594 201.463 104.562 201.438 104.538C201.413 104.514 201.379 104.501 201.344 104.501Z" fill="#6C63FF"/>
<path d="M207.071 104.501H205.492L206.896 103.096C206.921 103.07 206.935 103.035 206.935 102.999C206.935 102.963 206.921 102.928 206.896 102.902C206.884 102.889 206.868 102.879 206.852 102.872C206.835 102.865 206.817 102.862 206.799 102.862C206.781 102.862 206.764 102.865 206.747 102.872C206.73 102.879 206.715 102.889 206.703 102.902L205.298 104.309V102.724C205.298 102.688 205.284 102.653 205.258 102.628C205.233 102.602 205.198 102.588 205.162 102.588C205.126 102.588 205.092 102.603 205.066 102.629C205.041 102.654 205.026 102.688 205.026 102.724V104.309L203.624 102.894C203.611 102.881 203.596 102.871 203.58 102.864C203.563 102.857 203.545 102.853 203.527 102.853C203.509 102.853 203.491 102.857 203.475 102.864C203.458 102.871 203.443 102.881 203.43 102.894C203.405 102.92 203.391 102.955 203.391 102.991C203.391 103.027 203.405 103.062 203.43 103.088L204.835 104.492H203.253C203.217 104.493 203.183 104.508 203.157 104.533C203.132 104.559 203.117 104.593 203.117 104.629C203.117 104.665 203.131 104.7 203.157 104.726C203.182 104.751 203.217 104.766 203.253 104.766H204.835L203.43 106.173C203.405 106.199 203.391 106.234 203.391 106.27C203.391 106.306 203.405 106.341 203.43 106.367C203.457 106.392 203.491 106.405 203.527 106.405C203.563 106.405 203.598 106.392 203.624 106.367L205.026 104.96V106.542C205.026 106.578 205.04 106.613 205.066 106.638C205.091 106.664 205.126 106.679 205.162 106.679C205.198 106.679 205.233 106.664 205.258 106.638C205.284 106.613 205.298 106.578 205.298 106.542V104.96L206.703 106.367C206.729 106.392 206.763 106.405 206.799 106.405C206.835 106.405 206.87 106.392 206.896 106.367C206.921 106.341 206.935 106.306 206.935 106.27C206.935 106.234 206.921 106.199 206.896 106.173L205.492 104.766H207.071C207.107 104.766 207.142 104.751 207.167 104.726C207.193 104.7 207.207 104.665 207.207 104.629C207.205 104.594 207.19 104.562 207.164 104.538C207.139 104.514 207.106 104.501 207.071 104.501Z" fill="#6C63FF"/>
<path d="M250.971 137.743C250.963 137.413 250.922 137.084 250.848 136.762C250.603 135.838 250.049 134.721 249.138 134.442C248.198 134.153 247.29 133.769 246.428 133.294C246.264 130.365 246.935 127.367 246.204 124.528C245.931 123.49 245.481 122.495 245.361 121.432C245.212 120.109 245.571 118.699 245.045 117.481C244.631 116.519 243.72 115.841 242.741 115.486C241.762 115.13 240.707 115.035 239.668 114.939C238.359 114.833 234.121 114.33 232.643 115.502C232.541 115.581 232.45 115.673 232.371 115.775V115.775C232.338 115.82 232.309 115.868 232.283 115.917L232.27 115.939C232.24 115.996 232.216 116.056 232.196 116.117V116.117C232.176 116.184 232.16 116.253 232.15 116.322C232.15 116.344 232.15 116.366 232.15 116.387C232.15 116.409 232.15 116.483 232.15 116.532V116.606C232.15 116.655 232.15 116.704 232.15 116.756C232.15 116.808 232.15 116.795 232.15 116.814C232.169 117.06 232.204 117.306 232.204 117.549C232.207 117.67 232.196 117.791 232.172 117.91C232.081 118.232 231.927 118.533 231.719 118.795V118.795L231.67 118.866C231.64 118.91 231.61 118.951 231.583 118.994C231.555 119.038 231.534 119.071 231.512 119.109C231.49 119.147 231.468 119.172 231.449 119.208C231.423 119.253 231.399 119.299 231.378 119.347C231.378 119.374 231.348 119.399 231.337 119.426C231.303 119.5 231.276 119.577 231.255 119.656C231.192 119.893 231.186 120.142 231.239 120.383C231.313 120.689 231.439 120.98 231.613 121.243C231.681 121.355 231.754 121.465 231.831 121.574L232.022 121.834C231.986 122.087 231.967 122.343 231.964 122.599C231.964 123.454 232.158 124.299 232.532 125.069C232.905 125.838 233.447 126.513 234.119 127.042C234.227 128.196 234.215 129.358 234.083 130.51C234.059 130.75 234.029 130.993 233.996 131.234C233.963 131.474 233.939 131.633 233.906 131.832C233.507 131.889 233.1 131.859 232.714 131.742C232.536 131.662 232.354 131.592 232.169 131.532C231.375 131.332 230.565 132.125 229.78 131.884C229.78 131.922 229.758 131.958 229.745 131.993C229.581 131.891 229.392 131.836 229.199 131.832C228.733 131.81 228.354 131.471 228.016 131.152L226.977 130.171C226.909 130.111 226.849 130.043 226.797 129.969C226.741 129.862 226.699 129.749 226.671 129.632C226.497 129.067 226.074 128.616 225.665 128.187C225.588 128.089 225.485 128.014 225.368 127.971C225.323 127.964 225.277 127.964 225.232 127.971C225.204 127.933 225.174 127.896 225.142 127.862C225.071 127.781 224.996 127.704 224.915 127.632C224.419 127.173 224.37 126.78 223.939 126.266C223.563 125.776 223.223 125.26 222.919 124.722C222.884 124.435 222.835 124.14 222.775 123.842C222.637 123.16 222.437 122.492 222.178 121.847L221.632 120.637L221.57 120.7C221.174 120.109 220.751 119.787 220.372 119.863C219.737 119.995 219.423 121.23 219.524 122.845L219.743 124.484C219.743 124.525 219.762 124.566 219.773 124.607C219.733 124.801 219.713 124.999 219.713 125.197C219.713 125.427 219.925 125.596 220.037 125.801C220.216 126.079 220.311 126.403 220.31 126.733C220.296 126.851 220.261 126.963 220.255 127.077C220.27 127.334 220.359 127.581 220.511 127.788L221.875 130.083L222.148 130.564L222.164 130.586C222.25 130.754 222.375 130.898 222.529 131.007C222.583 131.582 222.735 132.143 222.979 132.666C223.026 132.77 223.077 132.868 223.132 132.966C223.499 133.57 223.93 134.132 224.419 134.641L225.068 135.371C225.709 136.087 226.35 136.806 227.045 137.467C227.294 137.732 227.595 137.943 227.929 138.087C228.092 138.153 228.27 138.174 228.444 138.148C228.619 138.123 228.783 138.052 228.921 137.942C228.921 138.281 228.921 138.62 228.921 138.959C229.022 138.965 229.12 138.998 229.204 139.055C229.288 139.112 229.356 139.19 229.4 139.282C229.444 139.373 229.463 139.475 229.454 139.576C229.446 139.678 229.41 139.775 229.352 139.858C228.779 141.331 228.201 142.817 227.334 144.137C227.946 144.5 228.514 144.934 229.025 145.43C229.356 145.798 229.651 146.198 229.906 146.624C229.93 146.826 229.949 147.026 229.96 147.225C230.162 150.482 228.905 153.715 227.779 156.819C227.454 157.699 227.1 158.62 227.127 159.535C226.913 159.667 226.709 159.814 226.516 159.975C226.74 160.56 226.652 161.082 226.628 161.708C226.62 162.083 226.543 162.453 226.402 162.801C226.283 163.042 226.152 163.276 226.009 163.503C225.303 164.752 225.147 166.236 225.005 167.662C224.921 168.523 225.254 169.575 224.864 170.346C224.19 171.668 223.593 173.078 223.5 174.548C223.497 174.879 223.455 175.208 223.375 175.529C223.29 175.803 223.14 176.035 223.064 176.303C222.985 176.662 222.967 177.031 223.009 177.396C223.061 178.706 222.867 180.014 222.437 181.252C222.096 182.227 221.719 183.271 221.987 184.274C221.329 184.966 220.923 185.86 220.833 186.812C220.826 187.056 220.797 187.298 220.746 187.537C220.663 187.78 220.553 188.014 220.419 188.233C219.87 189.235 219.613 190.371 219.677 191.512C218.859 192.625 218.45 193.996 218.207 195.36C217.965 196.724 217.858 198.112 217.547 199.459C217.133 201.241 216.383 203.041 216.236 204.867C215.352 205.432 214.97 206.528 214.801 207.564C214.632 208.6 214.605 209.687 214.172 210.644C213.948 211.141 213.626 211.586 213.413 212.095C213.264 212.499 213.155 212.917 213.086 213.343C212.955 214.01 212.841 214.753 213.002 215.393C212.77 215.638 212.5 215.844 212.203 216.002C212.246 215.833 212.282 215.663 212.312 215.491C211.608 216.131 210.332 215.907 209.77 216.674C209.602 216.922 209.536 217.226 209.587 217.521C209.638 217.816 209.801 218.08 210.043 218.257C210.219 218.364 210.409 218.446 210.607 218.5C211.971 218.937 213.373 219.377 214.774 219.145C214.94 219.127 215.1 219.076 215.246 218.994C215.428 218.86 215.578 218.686 215.685 218.486C215.895 218.153 216.105 217.819 216.312 217.486C216.814 217.636 217.325 217.756 217.842 217.844C217.894 218.281 217.932 218.718 217.951 219.156C218.224 219.21 218.589 219.227 218.717 218.973C218.756 218.876 218.772 218.773 218.764 218.669C218.764 218.475 218.791 218.218 218.807 217.956H218.862C219.694 217.99 220.521 217.822 221.275 217.467C220.983 215.046 221.946 212.679 222.78 210.389C223.661 207.979 224.416 205.525 225.177 203.071C225.723 201.344 226.325 199.672 226.86 197.942C227.532 195.756 228.208 193.57 228.886 191.384C229.18 190.422 229.477 189.471 229.816 188.515C230.527 186.579 231.372 184.696 232.343 182.877C232.616 182.361 232.889 181.85 233.112 181.314C233.385 180.661 233.579 179.978 233.797 179.303C234.272 177.918 234.844 176.569 235.509 175.264C235.528 175.229 235.542 175.196 235.561 175.163C235.782 176.068 236.003 176.986 236.15 177.896C236.349 179.012 236.365 180.153 236.196 181.273C236.066 182.036 235.817 182.79 235.847 183.563C235.888 184.632 236.458 185.602 236.739 186.632C236.92 187.403 237.023 188.19 237.045 188.982C237.121 190.212 237.786 191.592 237.317 192.731C235.858 196.341 236.565 200.418 235.733 204.208C235.305 206.154 233.993 207.982 234.097 209.971C234.169 211.383 234.293 212.791 234.468 214.196C234.51 214.639 234.625 215.072 234.808 215.478C234.917 215.691 235.042 215.895 235.182 216.09C235.062 216.136 234.961 216.259 234.874 216.519C234.65 217.202 234.874 218.049 235.479 218.431C235.726 218.564 235.992 218.656 236.267 218.705C236.638 218.81 237.022 218.864 237.407 218.863C237.527 218.857 237.646 218.842 237.764 218.819C238.186 218.997 238.616 219.152 239.054 219.284C239.054 219.396 239.076 219.508 239.09 219.62C239.09 219.679 239.103 219.736 239.128 219.79C239.152 219.843 239.188 219.89 239.231 219.929C239.3 219.961 239.375 219.974 239.45 219.967H240.93C240.93 219.844 240.93 219.719 240.93 219.596C241.1 219.613 241.271 219.595 241.433 219.542C241.595 219.49 241.744 219.404 241.871 219.29C242.002 219.122 242.095 218.928 242.144 218.721C242.547 217.349 242.948 215.977 243.346 214.603C243.824 213.085 244.022 211.492 243.933 209.903C243.406 204.867 244.563 199.814 244.186 194.764C243.96 191.729 244.115 188.677 244.65 185.681C244.772 185.003 244.922 184.315 244.977 183.64C245.097 182.366 244.95 181.079 245.04 179.814C245.07 179.371 245.13 178.932 245.184 178.492C245.558 175.761 245.754 173.009 245.771 170.253C245.762 169.34 245.706 168.427 245.601 167.52C245.886 167.448 246.144 167.296 246.346 167.083C246.589 166.766 246.526 166.321 246.523 165.916C246.523 164.949 246.929 164.036 247.257 163.123C247.677 161.864 248.021 160.581 248.287 159.281C248.569 158.234 248.723 157.155 248.746 156.07C248.746 155.961 248.74 155.852 248.729 155.743C248.832 155.671 248.918 155.578 248.98 155.469C249.051 155.309 249.095 155.138 249.111 154.964C249.209 154.267 249.31 153.567 249.408 152.868C249.481 152.367 249.553 151.867 249.624 151.368L250.491 145.304C250.564 144.777 250.641 144.252 250.714 143.727L250.941 142.159C250.965 141.973 250.992 141.787 251.012 141.612C251.677 140.497 251.042 139.011 250.971 137.743ZM243.736 160.445C243.415 159.68 243.115 158.896 243.191 158.071H243.161C243.233 157.817 243.22 157.546 243.125 157.3C243.041 157.101 242.894 156.931 242.804 156.732C242.707 156.488 242.657 156.229 242.656 155.967C242.589 154.305 242.72 152.641 243.046 151.01C243.082 150.818 243.12 150.624 243.155 150.433C243.27 150.367 243.374 150.285 243.466 150.19C243.61 150.026 243.728 149.842 243.818 149.643C244.126 149.023 244.407 148.392 244.666 147.75C244.751 147.542 244.873 147.302 245.083 147.25C245.04 148.848 245.203 150.48 244.554 151.922C244.431 152.155 244.339 152.403 244.282 152.66C244.222 153.067 244.391 153.48 244.331 153.884C244.301 154.095 244.211 154.289 244.175 154.497C244.148 154.598 244.149 154.706 244.177 154.807C244.204 154.909 244.258 155.002 244.333 155.076C244.37 155.101 244.409 155.121 244.451 155.136C244.434 155.245 244.421 155.357 244.41 155.464C244.388 155.688 244.377 155.898 244.363 156.03C244.301 156.698 244.276 157.369 244.29 158.041C244.29 158.765 244.317 159.489 244.306 160.227C244.316 160.439 244.281 160.65 244.203 160.847C244.149 160.949 244.079 161.041 243.995 161.12C243.916 160.874 243.829 160.659 243.736 160.445Z" fill="url(#paint0_linear)"/>
<path d="M222.211 128.739C223.043 128.568 223.326 126.515 222.843 124.154C222.361 121.793 221.295 120.018 220.463 120.188C219.631 120.359 219.347 122.412 219.83 124.773C220.313 127.134 221.379 128.91 222.211 128.739Z" fill="#FBBEBE"/>
<path d="M234.918 216.571C234.694 217.248 234.918 218.095 235.523 218.464C235.768 218.595 236.032 218.687 236.306 218.738C236.675 218.842 237.058 218.895 237.443 218.893C237.914 218.871 238.367 218.686 238.839 218.62C238.893 218.606 238.951 218.614 239 218.642C239.023 218.667 239.041 218.698 239.051 218.731C239.062 218.764 239.065 218.799 239.06 218.833C239.065 219.102 239.085 219.37 239.12 219.637C239.12 219.695 239.133 219.753 239.157 219.806C239.182 219.86 239.217 219.907 239.261 219.945C239.33 219.977 239.405 219.99 239.48 219.984H240.958C240.991 218.682 240.849 217.383 240.535 216.12C240.514 216.023 240.478 215.931 240.426 215.846C240.3 215.709 240.136 215.613 239.954 215.573C239.593 215.423 239.202 215.354 238.812 215.374C238.334 215.437 237.936 215.745 237.53 216.002C237.124 216.259 236.57 216.486 236.076 216.355C235.583 216.224 235.171 215.811 234.918 216.571Z" fill="#3F3D56"/>
<path d="M213.217 215.371C212.802 215.817 212.292 216.164 211.725 216.387L211.475 216.508C211.44 216.521 211.41 216.545 211.39 216.576C211.385 216.597 211.385 216.619 211.39 216.641C211.395 216.662 211.404 216.682 211.417 216.699C211.626 217.023 211.935 217.269 212.296 217.401C212.657 217.532 213.051 217.542 213.419 217.429C213.581 217.388 213.732 217.309 213.858 217.199C214.066 216.952 214.185 216.642 214.196 216.319C214.279 215.986 214.264 215.636 214.155 215.311C213.776 214.456 213.637 214.844 213.217 215.371Z" fill="#FBBEBE"/>
<path d="M218.884 218.738C218.892 218.841 218.876 218.945 218.837 219.041C218.709 219.292 218.352 219.279 218.074 219.224C218.032 218.297 217.919 217.374 217.738 216.464C217.209 216.439 216.827 216.942 216.544 217.393L215.813 218.554C215.707 218.754 215.558 218.928 215.377 219.063C215.231 219.143 215.07 219.194 214.905 219.213C213.509 219.445 212.099 219.005 210.752 218.568C210.554 218.515 210.364 218.434 210.188 218.328C209.947 218.151 209.784 217.887 209.734 217.593C209.683 217.298 209.748 216.996 209.915 216.748C210.479 215.983 211.747 216.202 212.451 215.568C212.377 216.014 212.257 216.451 212.091 216.871C213.032 216.729 213.664 215.866 214.422 215.289C214.613 215.127 214.842 215.018 215.088 214.972C215.272 214.957 215.457 214.976 215.633 215.029C216.507 215.25 217.325 215.653 218.033 216.213C218.319 216.439 218.766 216.759 218.892 217.109C219.025 217.527 218.884 218.292 218.884 218.738Z" fill="#3F3D56"/>
<path d="M237.642 128.578C240.753 128.578 243.275 126.05 243.275 122.932C243.275 119.814 240.753 117.286 237.642 117.286C234.53 117.286 232.008 119.814 232.008 122.932C232.008 126.05 234.53 128.578 237.642 128.578Z" fill="#FBBEBE"/>
<path d="M248.74 156.265C248.717 157.344 248.564 158.416 248.285 159.459C248.018 160.754 247.674 162.031 247.254 163.285C246.929 164.195 246.523 165.107 246.526 166.072C246.526 166.474 246.591 166.919 246.346 167.236C246.127 167.458 245.852 167.616 245.55 167.692C245.399 167.732 245.26 167.807 245.143 167.911C245.027 168.015 244.936 168.145 244.879 168.291C244.623 167.907 244.431 167.485 244.312 167.039C243.823 165.538 243.368 164.029 242.948 162.511C242.91 162.424 242.893 162.329 242.9 162.233C242.907 162.138 242.936 162.046 242.986 161.965C243.056 161.904 243.136 161.859 243.224 161.831C243.503 161.717 243.759 161.552 243.979 161.344C244.082 161.253 244.167 161.142 244.23 161.019C244.309 160.823 244.345 160.613 244.336 160.402C244.336 159.678 244.336 158.956 244.317 158.232C244.306 157.563 244.331 156.895 244.393 156.229C244.393 156.098 244.418 155.887 244.44 155.663C244.481 155.234 244.563 154.737 244.794 154.57C245.141 154.338 246.177 154.65 246.57 154.704C247.246 154.797 247.933 154.906 248.593 155.035C248.689 155.438 248.738 155.85 248.74 156.265Z" fill="#3F3D56"/>
<path d="M225.992 129.253C225.774 129.69 225.251 129.9 224.847 130.176L223.465 131.127C223.372 131.211 223.264 131.274 223.146 131.315C223.029 131.355 222.904 131.371 222.78 131.362C222.668 131.321 222.565 131.257 222.477 131.175C222.39 131.093 222.319 130.994 222.27 130.884C222.271 130.877 222.271 130.869 222.27 130.862L221.984 130.381L220.621 128.091C220.469 127.886 220.381 127.641 220.367 127.386C220.367 127.269 220.408 127.159 220.419 127.042C220.422 126.712 220.327 126.388 220.146 126.113C220.037 125.908 219.819 125.738 219.824 125.509C219.814 125.207 219.866 124.907 219.977 124.626C220.12 124.367 220.325 124.147 220.574 123.987C220.702 123.894 220.833 123.807 220.97 123.714C221.042 123.664 221.122 123.627 221.207 123.604C221.433 123.558 221.657 123.746 221.886 123.755C222.87 124.416 223.249 125.667 224.024 126.569C224.46 127.083 224.504 127.476 224.997 127.936C225.076 128.007 225.153 128.083 225.226 128.162C225.324 128.269 225.406 128.388 225.472 128.518C225.562 128.753 226.104 129.029 225.992 129.253Z" fill="#3F3D56"/>
<path d="M235.662 128.58C236.068 129.441 236.385 130.387 236.267 131.332C236.243 131.588 236.162 131.836 236.03 132.056C235.637 132.66 234.814 132.77 234.097 132.805C233.946 132.792 233.794 132.81 233.649 132.857C233.505 132.904 233.372 132.979 233.257 133.078C233.161 133.218 233.114 133.385 233.124 133.554C233.133 133.724 233.198 133.885 233.309 134.013C233.539 134.259 233.825 134.447 234.143 134.559C235.278 135.059 236.502 135.472 237.734 135.357C238.307 135.303 238.863 135.136 239.433 135.051C240.055 134.984 240.679 134.949 241.304 134.947C242.046 134.92 242.785 134.846 243.524 134.773L245.481 134.578C245.588 134.58 245.692 134.542 245.773 134.472C245.918 134.302 245.732 134.054 245.552 133.925C244.513 133.155 243.191 132.625 242.599 131.466C242.326 130.92 242.242 130.269 242.04 129.679C241.838 129.089 241.517 128.556 241.391 127.955C241.324 127.427 241.294 126.896 241.301 126.364C241.308 125.828 241.113 125.309 240.756 124.911C240.366 124.547 239.801 124.454 239.272 124.432C237.969 124.375 236.581 124.686 235.657 125.607C235.408 125.856 235.196 126.154 234.939 126.378C234.683 126.602 234.334 126.668 234.503 126.963C234.672 127.258 235.005 127.441 235.185 127.701C235.367 127.981 235.527 128.275 235.662 128.58V128.58Z" fill="#FBBEBE"/>
<path d="M246.769 136.53C246.425 138.634 245.865 140.697 245.1 142.686C244.715 143.584 244.387 144.506 244.118 145.446C243.908 146.293 243.949 147.2 243.755 148.05C243.515 149.108 243.275 150.168 243.082 151.234C242.757 152.861 242.627 154.522 242.695 156.18C242.695 156.441 242.745 156.7 242.842 156.942C242.932 157.139 243.076 157.308 243.161 157.511C243.224 157.688 243.25 157.877 243.237 158.065C243.224 158.253 243.172 158.437 243.085 158.604C242.945 158.916 242.755 159.204 242.523 159.456C239.981 160.216 237.263 159.967 234.615 160.128C232.174 160.276 229.707 160.779 227.301 160.361C227.029 159.268 227.484 158.123 227.874 157.057C229.006 153.961 230.257 150.736 230.056 147.493C230.034 147.114 229.992 146.738 229.927 146.364C229.532 144.066 229.963 141.686 230.653 139.459C231.081 138.071 231.062 136.592 230.964 135.147C230.915 134.677 230.909 134.205 230.945 133.734C230.984 133.254 231.162 132.795 231.457 132.414C231.457 132.395 231.482 132.376 231.495 132.357C231.509 132.338 231.615 132.34 231.7 132.357C231.721 132.366 231.745 132.371 231.768 132.371C231.791 132.371 231.815 132.366 231.836 132.357L231.866 132.338C231.878 132.33 231.892 132.325 231.906 132.325C231.92 132.325 231.934 132.33 231.945 132.338C232.008 132.376 232.043 132.507 232.18 132.532C232.381 132.562 232.584 132.581 232.788 132.589C233.033 132.596 233.276 132.631 233.513 132.693H233.546C233.901 132.753 234.265 132.722 234.604 132.603C234.83 132.546 235.048 132.462 235.253 132.351C235.313 132.286 235.689 132.226 235.766 132.179C236.014 132.029 235.959 131.324 236.011 131.034C236.04 130.744 236.109 130.459 236.216 130.187C236.34 129.987 236.511 129.82 236.715 129.701C236.918 129.583 237.147 129.516 237.383 129.507C237.852 129.496 238.322 129.538 238.782 129.632C239.799 129.777 240.84 129.753 241.838 129.988C242.34 130.105 242.888 130.283 243.349 130.053C243.475 130.083 243.494 130.193 243.494 130.327C243.482 130.454 243.456 130.579 243.417 130.701C243.243 131.455 243.834 132.149 244.38 132.696C244.61 132.953 244.882 133.17 245.184 133.338C245.457 133.464 245.73 133.515 246.002 133.652C246.223 133.77 246.411 133.942 246.548 134.152C246.705 134.393 246.811 134.664 246.859 134.947C246.917 135.476 246.887 136.011 246.769 136.53Z" fill="#3F3D56"/>
<path opacity="0.1" d="M246.769 136.53C246.425 138.634 245.865 140.697 245.1 142.686C244.715 143.584 244.387 144.506 244.118 145.446C243.908 146.293 243.949 147.2 243.755 148.05C243.515 149.108 243.275 150.168 243.082 151.234C243.025 151.267 242.965 151.297 242.905 151.324C242.565 151.486 242.206 151.602 241.836 151.668C241.171 151.749 240.498 151.727 239.84 151.603L235.948 151.081C234.394 150.87 232.739 150.616 231.585 149.561C230.945 148.982 230.525 148.217 230.064 147.479C230.043 147.101 230 146.724 229.936 146.351C229.54 144.052 229.971 141.672 230.661 139.445C231.089 138.057 231.07 136.579 230.972 135.133C230.923 134.664 230.917 134.191 230.953 133.72C230.992 133.24 231.17 132.781 231.465 132.401C231.545 132.377 231.626 132.359 231.708 132.346V132.346C231.763 132.335 231.818 132.328 231.874 132.324H231.953C232.045 132.324 232.137 132.335 232.226 132.357C232.412 132.416 232.594 132.486 232.772 132.567H232.804C233.038 132.644 233.284 132.68 233.53 132.671C233.89 132.671 234.26 132.614 234.62 132.589C235.065 132.52 235.52 132.601 235.913 132.821C236.166 133.026 236.407 133.246 236.633 133.48C236.906 133.695 237.213 133.862 237.541 133.975C239.888 134.872 242.492 134.818 244.8 133.822C245.021 133.695 245.273 133.631 245.528 133.636C245.716 133.673 245.895 133.749 246.051 133.86C246.215 133.955 246.376 134.048 246.542 134.133C246.699 134.374 246.805 134.645 246.853 134.928C246.916 135.463 246.887 136.004 246.769 136.53V136.53Z" fill="black"/>
<path d="M249.144 134.721C248.058 134.388 247.015 133.93 246.035 133.354C245.878 133.244 245.7 133.168 245.511 133.13C245.256 133.127 245.004 133.191 244.781 133.316C242.474 134.312 239.871 134.367 237.524 133.469C237.197 133.355 236.89 133.188 236.616 132.974C236.39 132.741 236.149 132.521 235.897 132.316C234.999 131.734 233.759 132.417 232.755 132.043C232.577 131.963 232.395 131.893 232.21 131.832C231.416 131.633 230.609 132.425 229.829 132.185C229.539 132.975 229.324 133.791 229.188 134.622C229.077 135.577 229.018 136.536 229.011 137.497C229.011 138.073 228.984 138.65 229.011 139.227C229.107 139.242 229.199 139.278 229.281 139.331C229.362 139.384 229.432 139.454 229.486 139.535C229.521 139.631 229.536 139.733 229.529 139.834C229.521 139.936 229.491 140.034 229.442 140.123C228.872 141.59 228.294 143.074 227.43 144.389C228.039 144.752 228.604 145.185 229.115 145.678C230.069 146.689 230.538 148.108 231.569 149.042C232.731 150.094 234.386 150.351 235.932 150.559L239.823 151.081C240.482 151.204 241.156 151.227 241.822 151.149C242.191 151.082 242.55 150.965 242.888 150.802C243.109 150.709 243.311 150.576 243.483 150.409C243.626 150.245 243.745 150.061 243.834 149.862C244.143 149.244 244.423 148.613 244.683 147.974C244.772 147.747 244.909 147.482 245.154 147.463C246.599 146.157 247.963 144.818 249.408 143.511C249.989 143.029 250.51 142.479 250.96 141.872C251.677 140.809 251.025 139.303 250.96 138.019C250.952 137.69 250.911 137.363 250.837 137.043C250.603 136.111 250.052 134.997 249.144 134.721Z" fill="#6C63FF"/>
<path opacity="0.1" d="M225.993 129.253C225.774 129.69 225.251 129.9 224.847 130.176L223.465 131.127C223.372 131.211 223.264 131.274 223.146 131.315C223.029 131.355 222.904 131.371 222.78 131.362C222.668 131.321 222.565 131.257 222.477 131.175C222.39 131.093 222.319 130.994 222.27 130.884C222.27 130.821 222.27 130.753 222.27 130.687C222.26 130.466 222.289 130.245 222.358 130.034C222.493 129.725 222.703 129.455 222.968 129.247C223.482 128.76 224.092 128.387 224.76 128.154C224.864 128.114 224.977 128.102 225.087 128.121C225.13 128.132 225.17 128.15 225.207 128.173C225.305 128.28 225.387 128.399 225.453 128.528C225.562 128.753 226.104 129.029 225.993 129.253Z" fill="black"/>
<path d="M229.248 132.133C228.785 132.111 228.406 131.775 228.068 131.455L227.034 130.493C226.965 130.435 226.904 130.367 226.854 130.291C226.798 130.185 226.756 130.072 226.729 129.955C226.51 129.403 226.166 128.909 225.725 128.512C225.648 128.414 225.545 128.34 225.428 128.299C225.317 128.278 225.203 128.29 225.098 128.332C224.43 128.565 223.82 128.937 223.307 129.425C223.041 129.632 222.831 129.903 222.696 130.212C222.627 130.422 222.598 130.644 222.608 130.865C222.615 131.587 222.777 132.299 223.083 132.953C223.129 133.054 223.181 133.155 223.236 133.253C223.599 133.856 224.029 134.416 224.517 134.923L225.166 135.65C225.804 136.366 226.442 137.082 227.135 137.74C227.383 138.005 227.684 138.216 228.019 138.358C228.186 138.426 228.37 138.447 228.549 138.418C228.728 138.389 228.895 138.312 229.033 138.194C229.164 138.042 229.262 137.866 229.322 137.675C229.742 136.581 230.14 135.445 230.165 134.267C230.17 133.795 230.15 133.324 230.105 132.854C230.064 132.357 229.712 132.163 229.248 132.133Z" fill="#6C63FF"/>
<path d="M245.773 170.389C245.757 173.138 245.563 175.883 245.19 178.606C245.135 179.046 245.075 179.486 245.045 179.926C244.955 181.202 245.102 182.484 244.982 183.752C244.92 184.438 244.778 185.118 244.658 185.788C244.125 188.776 243.969 191.819 244.194 194.846C244.571 199.883 243.417 204.921 243.941 209.944C244.004 210.921 243.95 211.901 243.78 212.865C243.682 213.463 243.541 214.053 243.357 214.63C242.959 215.999 242.559 217.365 242.157 218.729C242.11 218.937 242.017 219.131 241.885 219.298C241.746 219.418 241.582 219.508 241.406 219.56C241.23 219.612 241.044 219.626 240.862 219.601C239.289 219.552 237.808 218.871 236.379 218.207C236.215 218.142 236.063 218.05 235.929 217.934C235.632 217.625 235.657 217.139 235.526 216.732C235.395 216.325 235.04 215.942 234.838 215.524C234.673 215.129 234.572 214.709 234.541 214.281C234.359 212.882 234.236 211.477 234.17 210.067C234.067 208.083 235.376 206.258 235.807 204.328C236.625 200.536 235.932 196.469 237.385 192.871C237.844 191.734 237.178 190.357 237.113 189.132C237.089 188.343 236.987 187.557 236.807 186.788C236.535 185.76 235.959 184.793 235.918 183.727C235.888 182.957 236.136 182.205 236.265 181.446C236.435 180.328 236.419 179.189 236.218 178.076C236.074 177.158 235.853 176.24 235.632 175.344L235.583 175.445C234.919 176.746 234.347 178.093 233.873 179.475C233.655 180.145 233.464 180.828 233.191 181.478C232.968 182.025 232.692 182.525 232.422 183.039C231.454 184.85 230.611 186.727 229.9 188.654C229.562 189.6 229.265 190.567 228.97 191.515L226.95 198.074C226.404 199.798 225.807 201.465 225.273 203.186C224.517 205.646 223.762 208.083 222.884 210.488C222.066 212.77 221.092 215.133 221.384 217.543C220.632 217.898 219.806 218.065 218.976 218.033C217.571 217.908 216.192 217.573 214.886 217.038C214.365 216.844 213.825 216.625 213.473 216.196C212.868 215.456 213.018 214.371 213.201 213.428C213.27 213.003 213.379 212.586 213.528 212.182C213.735 211.679 214.073 211.234 214.286 210.736C214.714 209.783 214.741 208.703 214.91 207.668C215.08 206.632 215.456 205.539 216.339 204.976C216.489 203.156 217.237 201.361 217.648 199.582C217.959 198.235 218.063 196.849 218.308 195.483C218.554 194.117 218.949 192.75 219.772 191.644C219.708 190.503 219.965 189.366 220.514 188.365C220.647 188.145 220.756 187.911 220.839 187.668C220.89 187.43 220.919 187.189 220.926 186.946C221.016 185.997 221.421 185.105 222.077 184.413C221.804 183.416 222.183 182.375 222.524 181.407C222.953 180.173 223.147 178.869 223.097 177.563C223.054 177.198 223.072 176.829 223.148 176.469C223.225 176.196 223.375 175.964 223.462 175.702C223.54 175.38 223.581 175.051 223.585 174.721C223.691 173.242 224.288 171.849 224.948 170.529C225.341 169.758 225.008 168.712 225.09 167.854C225.232 166.427 225.387 164.951 226.093 163.708C226.224 163.473 226.366 163.249 226.483 163.006C226.625 162.659 226.702 162.288 226.71 161.913C226.734 161.287 226.821 160.768 226.598 160.186C228.057 158.97 230.047 158.628 231.945 158.546C233.843 158.464 235.763 158.636 237.62 158.232C238.165 158.109 238.711 157.94 239.286 157.858C240.592 157.666 241.917 157.964 243.207 158.259C243.117 159.079 243.417 159.866 243.753 160.629C245.062 163.717 245.749 167.034 245.773 170.389V170.389Z" fill="#33313F"/>
<path opacity="0.1" d="M239.351 171.015L236.218 178.076C236.074 177.158 235.853 176.24 235.632 175.344L235.583 175.445V175.297L237.29 171.534L239.351 171.015Z" fill="black"/>
<path opacity="0.1" d="M248.74 156.264C248.559 156.4 248.344 156.481 248.118 156.497C247.773 156.509 247.428 156.462 247.099 156.357L244.644 155.743C244.567 155.724 244.492 155.697 244.421 155.663C244.462 155.234 244.543 154.737 244.775 154.57C245.122 154.338 246.158 154.65 246.55 154.704C247.227 154.797 247.914 154.906 248.574 155.035C248.676 155.437 248.732 155.85 248.74 156.264V156.264Z" fill="black"/>
<path d="M250.815 140.005C250.867 140.232 250.941 140.456 250.984 140.686C251.058 141.249 251.038 141.82 250.927 142.377L250.703 143.94L250.48 145.512L249.615 151.559L249.403 153.056L249.103 155.147C249.089 155.321 249.044 155.491 248.972 155.65C248.883 155.798 248.758 155.922 248.609 156.01C248.46 156.099 248.291 156.148 248.118 156.155C247.773 156.166 247.428 156.119 247.099 156.016L244.644 155.398C244.537 155.379 244.434 155.337 244.344 155.275C244.269 155.202 244.215 155.11 244.187 155.008C244.16 154.907 244.159 154.8 244.186 154.699C244.222 154.491 244.312 154.297 244.342 154.089C244.402 153.685 244.233 153.27 244.293 152.868C244.351 152.612 244.443 152.365 244.565 152.133C245.383 150.321 244.909 148.206 245.187 146.239C245.437 144.69 246.09 143.235 247.079 142.019C247.69 141.252 248.391 140.562 249.168 139.964C249.474 139.727 249.959 139.238 250.343 139.145C250.837 139.041 250.733 139.661 250.815 140.005Z" fill="#6C63FF"/>
<path d="M232.243 116.467C232.063 117.041 232.343 117.672 232.215 118.257C232.076 118.901 231.471 119.35 231.299 119.997C231.026 120.984 231.861 121.883 232.472 122.703C234.735 125.747 234.438 129.96 233.663 133.674C233.04 136.653 232.178 139.578 231.086 142.418C230.745 143.301 230.369 144.197 229.698 144.859C230.953 144.498 232.286 144.134 233.543 144.484C235.136 144.927 236.51 146.476 238.124 146.124C239.095 145.908 239.777 145.044 240.649 144.566C242.286 143.684 244.257 144.238 246.081 144.522C246.474 144.615 246.886 144.595 247.268 144.462C247.559 144.305 247.807 144.077 247.987 143.798C248.802 142.752 249.289 141.487 249.389 140.164C249.432 139.505 249.335 138.844 249.104 138.226C248.874 137.607 248.514 137.045 248.05 136.576C247.663 136.21 247.199 135.915 246.902 135.483C246.613 134.979 246.458 134.409 246.452 133.827C246.237 130.821 246.968 127.752 246.215 124.845C245.942 123.809 245.498 122.817 245.378 121.757C245.228 120.437 245.585 119.024 245.062 117.817C244.65 116.857 243.742 116.177 242.763 115.827C241.784 115.478 240.737 115.379 239.698 115.281C238.203 115.155 232.867 114.513 232.243 116.467Z" fill="#33313F"/>
<g opacity="0.1">
<path opacity="0.1" d="M233.663 133.674C233.043 136.641 232.186 139.553 231.1 142.383C231.288 142.008 231.446 141.615 231.596 141.224C232.689 138.384 233.551 135.46 234.173 132.48C234.95 128.763 235.248 124.555 232.984 121.508C232.439 120.782 231.738 119.995 231.763 119.142C231.561 119.4 231.404 119.69 231.299 120C231.026 120.986 231.861 121.885 232.472 122.705C234.735 125.747 234.438 129.96 233.663 133.674Z" fill="black"/>
<path opacity="0.1" d="M232.248 117.981C232.467 117.708 232.63 117.395 232.728 117.06C232.77 116.654 232.759 116.244 232.695 115.841C232.485 115.999 232.327 116.217 232.243 116.467C232.082 116.95 232.267 117.475 232.248 117.981Z" fill="black"/>
<path opacity="0.1" d="M248.5 142.596C248.32 142.874 248.072 143.101 247.78 143.257C247.399 143.392 246.987 143.413 246.594 143.317C244.77 143.044 242.776 142.481 241.162 143.364C240.287 143.839 239.608 144.703 238.634 144.921C237.023 145.282 235.648 143.733 234.056 143.282C232.927 142.968 231.738 143.227 230.601 143.555C230.375 144.038 230.07 144.479 229.698 144.861C230.953 144.501 232.286 144.137 233.543 144.487C235.136 144.93 236.51 146.479 238.124 146.127C239.095 145.911 239.777 145.047 240.649 144.569C242.286 143.686 244.257 144.241 246.081 144.525C246.475 144.618 246.886 144.597 247.268 144.465C247.559 144.308 247.807 144.079 247.987 143.801C248.482 143.148 248.863 142.416 249.116 141.637C248.934 141.971 248.728 142.291 248.5 142.596Z" fill="black"/>
</g>
</g>
<defs>
<linearGradient id="paint0_linear" x1="209.588" y1="167.351" x2="251.309" y2="167.351" gradientUnits="userSpaceOnUse">
<stop stop-color="#808080" stop-opacity="0.25"/>
<stop offset="0.54" stop-color="#808080" stop-opacity="0.12"/>
<stop offset="1" stop-color="#808080" stop-opacity="0.1"/>
</linearGradient>
<clipPath id="clip0">
<rect width="318" height="220" fill="white"/>
</clipPath>
</defs>
</svg>
