<svg width="48" height="48" viewBox="0 0 48 48" fill="none" xmlns="http://www.w3.org/2000/svg">
<path d="M24 3C19.8466 3 15.7865 4.23163 12.333 6.53914C8.87959 8.84665 6.18797 12.1264 4.59853 15.9636C3.00909 19.8009 2.59322 24.0233 3.40351 28.0969C4.2138 32.1705 6.21386 35.9123 9.15076 38.8492C12.0877 41.7861 15.8295 43.7862 19.9031 44.5965C23.9767 45.4068 28.1991 44.9909 32.0364 43.4015C35.8736 41.812 39.1534 39.1204 41.4609 35.667C43.7684 32.2135 45 28.1534 45 24C45 18.4305 42.7875 13.089 38.8492 9.15076C34.911 5.21249 29.5695 3 24 3V3ZM24 10.5C25.335 10.5 26.6401 10.8959 27.7501 11.6376C28.8601 12.3793 29.7253 13.4335 30.2362 14.6669C30.7471 15.9003 30.8808 17.2575 30.6203 18.5669C30.3599 19.8762 29.717 21.079 28.773 22.023C27.829 22.967 26.6262 23.6099 25.3169 23.8703C24.0075 24.1308 22.6503 23.9971 21.4169 23.4862C20.1835 22.9753 19.1293 22.1101 18.3876 21.0001C17.6459 19.8901 17.25 18.585 17.25 17.25C17.248 16.363 17.4213 15.4844 17.7598 14.6646C18.0983 13.8447 18.5954 13.0998 19.2226 12.4726C19.8498 11.8454 20.5947 11.3483 21.4146 11.0098C22.2344 10.6713 23.113 10.498 24 10.5V10.5ZM36 37.38C32.7105 40.3535 28.4342 41.9998 24 41.9998C19.5658 41.9998 15.2895 40.3535 12 37.38V36.51C11.9432 34.4562 12.699 32.4629 14.1033 30.9632C15.5076 29.4634 17.4469 28.5782 19.5 28.5H28.5C30.5438 28.582 32.474 29.4621 33.8762 30.9513C35.2784 32.4404 36.0409 34.42 36 36.465V37.38V37.38Z" fill="black"/>
</svg>